<svg xmlns="http://www.w3.org/2000/svg" xmlns:xlink="http://www.w3.org/1999/xlink" version="1.1" id="Layer_1" x="0px" y="0px" width="100%" viewBox="0 0 64 64" enable-background="new 0 0 64 64" xml:space="preserve">
<path fill="#33B0EB" opacity="1.000000" stroke="none" d=" M63.039543,6.114213   C51.649307,16.947279 40.306309,27.830601 28.852644,38.596180   C20.890873,46.079643 12.776999,53.401279 4.032929,60.906525   C2.556522,61.011890 1.778261,61.005943 1.000000,61.000000   C1.000000,52.312435 1.000000,43.624874 1.285056,34.691700   C2.068962,33.639023 2.567812,32.831955 3.375842,31.900764   C13.144126,22.860176 22.603231,13.943710 32.265404,5.004060   C32.468475,4.980875 32.875141,4.941261 33.351490,4.953215   C40.319202,4.976591 46.813774,4.871028 53.300583,5.048684   C56.554188,5.137791 59.793674,5.742620 63.039543,6.114213  z"/>
<path fill="#1F1A17" opacity="1.000000" stroke="none" d=" M32.062336,5.027245   C22.603231,13.943710 13.144126,22.860176 3.031347,31.897196   C1.918448,32.011833 1.459224,32.005917 1.000000,32.000000   C1.000000,23.312437 1.000000,14.624874 1.000000,5.468656   C1.179698,5.010002 1.359396,5.020004 2.270424,5.018036   C12.688615,5.013125 22.375475,5.020185 32.062336,5.027245  z"/>
<path fill="#25211F" opacity="1.000000" stroke="none" d=" M1.000000,32.333336   C1.459224,32.005917 1.918448,32.011833 2.722167,32.021317   C2.567812,32.831955 2.068962,33.639023 1.285056,34.223045   C1.000000,33.555557 1.000000,33.111111 1.000000,32.333336  z"/>
<path fill="#3BB7F1" opacity="1.000000" stroke="none" d=" M1.000000,61.250000   C1.778261,61.005943 2.556522,61.011890 3.723981,61.028526   C3.312990,61.356678 2.512801,61.674141 1.356306,61.995804   C1.000000,62.000000 1.000000,61.500000 1.000000,61.250000  z"/>
<path fill="#43B6EB" opacity="1.000000" stroke="none" d=" M63.389534,5.897909   C59.793674,5.742620 56.554188,5.137791 53.300583,5.048684   C46.813774,4.871028 40.319202,4.976591 33.400230,4.743860   C32.972618,4.522551 33.075768,4.104939 33.075768,4.104939   C42.295135,4.069792 51.515015,3.982584 60.733131,4.073815   C61.740467,4.083786 62.737637,5.120903 63.389534,5.897909  z"/>
<path fill="#342E2C" opacity="1.000000" stroke="none" d=" M32.605133,4.070424   C33.075768,4.104939 32.972618,4.522551 32.923882,4.731906   C32.875141,4.941261 32.468475,4.980875 32.265404,5.004060   C22.375475,5.020185 12.688615,5.013125 2.540023,5.003997   C5.303269,4.668689 8.523701,4.114521 11.754166,4.048056   C18.544819,3.908342 25.340740,4.024675 32.605133,4.070424  z"/>
</svg>